<!DOCTYPE svg PUBLIC "-//W3C//DTD SVG 1.1//EN" "http://www.w3.org/Graphics/SVG/1.1/DTD/svg11.dtd">
<!-- Uploaded to: SVG Repo, www.svgrepo.com, Transformed by: SVG Repo Mixer Tools -->
<svg version="1.1" id="Layer_1" xmlns="http://www.w3.org/2000/svg" xmlns:xlink="http://www.w3.org/1999/xlink" viewBox="0 0 512.001 512.001" xml:space="preserve" width="256px" height="256px" fill="#000000">
<g id="SVGRepo_bgCarrier" stroke-width="0"/>
<g id="SVGRepo_tracerCarrier" stroke-linecap="round" stroke-linejoin="round"/>
<g id="SVGRepo_iconCarrier"> <circle style="fill:#FFD630;" cx="256" cy="255.892" r="255.892"/> <path style="fill:#F5BE18;" d="M511.47,241.525l-119.389-119.6L121.395,391.766l119.812,119.812 c4.86,0.211,9.931,0.423,14.792,0.423c141.366,0,255.894-114.529,255.894-255.894c0-4.86-0.211-9.72-0.423-14.369V241.525z"/> <path style="fill:#E84F4F;" d="M129.002,117.488h254.204c6.302,0,11.41,5.109,11.41,11.41v254.204c0,6.302-5.109,11.41-11.41,11.41 H129.002c-6.302,0-11.41-5.109-11.41-11.41V128.898C117.591,122.596,122.7,117.488,129.002,117.488z"/> <rect x="124.563" y="158.272" style="fill:#EFEFF0;" width="262.863" height="229.057"/> <g> <path style="fill:#FFFFFF;" d="M213.313,130.589h155.312c1.283,0,2.324,1.04,2.324,2.324v6.55c0,1.283-1.04,2.324-2.324,2.324 H213.313c-1.283,0-2.324-1.04-2.324-2.324v-6.55C210.99,131.629,212.03,130.589,213.313,130.589z"/> <path style="fill:#FFFFFF;" d="M144.004,128.053c4.438,0,8.241,3.593,8.241,8.241c0,4.438-3.593,8.241-8.241,8.241 c-4.438,0-8.241-3.593-8.241-8.241C135.764,131.857,139.356,128.053,144.004,128.053z M186.478,128.053 c4.438,0,8.241,3.593,8.241,8.241c0,4.438-3.593,8.241-8.241,8.241c-4.438,0-8.241-3.593-8.241-8.241 C178.236,131.857,181.829,128.053,186.478,128.053z M165.136,128.053c4.438,0,8.241,3.593,8.241,8.241 c0,4.438-3.593,8.241-8.241,8.241c-4.438,0-8.241-3.593-8.241-8.241C156.895,131.857,160.487,128.053,165.136,128.053z"/> </g> <rect x="141.897" y="177.076" style="fill:#00CC96;" width="228.426" height="67.404"/> <rect x="296.778" y="265.194" style="fill:#E84F4F;" width="73.325" height="58.112"/> <path style="fill:#898989;" d="M141.892,265.192H278.82v10.565H141.892L141.892,265.192L141.892,265.192z M141.892,348.448H278.82 v10.565H141.892L141.892,348.448L141.892,348.448z M141.892,327.528H278.82v10.565H141.892L141.892,327.528L141.892,327.528z M141.892,306.608H278.82v10.565H141.892L141.892,306.608L141.892,306.608z M141.892,285.689H278.82v10.565H141.892L141.892,285.689 L141.892,285.689z"/> </g>
</svg>